# xmcd CD database file
#
# Track frame offsets:
#	150
#	23706
#	47453
#	66209
#	92886
#	114936
#	137301
#	155752
#	178949
#	202070
#	225173
#
# Disc length: 3269 seconds
#
# Revision: 3
# Processed by: cddbd v1.5.2PL0 Copyright (c) Steve Scherf et al.
# Submitted via: jetAudio 7
#
DISCID=890cc30b
DTITLE=Various Artist - Buddha Bar (Disk III)
DYEAR=2002
DGENRE=New Age
TTITLE0=Govind Bolo
TTITLE1=War Dance
TTITLE2=The Peace will Come
TTITLE3=Shlomit
TTITLE4=Nadan Harmony
TTITLE5=Olida
TTITLE6=The Flute Dance
TTITLE7=MEns Cry
TTITLE8=Indian Ballad
TTITLE9=Spanish Illusion
TTITLE10=Love Night
EXTD=YEAR: 2002
EXTT0=
EXTT1=
EXTT2=
EXTT3=
EXTT4=
EXTT5=
EXTT6=
EXTT7=
EXTT8=
EXTT9=
EXTT10=
PLAYORDER=
